<svg width="40" height="40" viewBox="0 0 40 40" fill="none" xmlns="http://www.w3.org/2000/svg">
<path fill-rule="evenodd" clip-rule="evenodd" d="M19.9468 39.5106C30.9631 39.5106 39.8936 30.6659 39.8936 19.7553C39.8936 8.84476 30.9631 0 19.9468 0C8.93049 0 0 8.84476 0 19.7553C0 30.6659 8.93049 39.5106 19.9468 39.5106Z" fill="#F5F6FA" fill-opacity="0.01"/>
<mask id="mask0_6_281" style="mask-type:luminance" maskUnits="userSpaceOnUse" x="0" y="0" width="40" height="40">
<path fill-rule="evenodd" clip-rule="evenodd" d="M19.9468 39.5106C30.9631 39.5106 39.8936 30.6659 39.8936 19.7553C39.8936 8.84476 30.9631 0 19.9468 0C8.93049 0 0 8.84476 0 19.7553C0 30.6659 8.93049 39.5106 19.9468 39.5106Z" fill="white"/>
</mask>
<g mask="url(#mask0_6_281)">
</g>
<path d="M22.2327 29.7872V21.0919H25.2071L25.6534 17.7022H22.2327V15.5384C22.2327 14.5573 22.5093 13.8887 23.9453 13.8887L25.7738 13.888V10.8561C25.4576 10.8158 24.3721 10.7234 23.1088 10.7234C20.4707 10.7234 18.6646 12.3028 18.6646 15.2027V17.7022H15.6812V21.0919H18.6646V29.7872H22.2327Z" fill="white"/>
<mask id="mask1_6_281" style="mask-type:luminance" maskUnits="userSpaceOnUse" x="15" y="10" width="11" height="20">
<path d="M22.2327 29.7872V21.0919H25.2071L25.6534 17.7022H22.2327V15.5384C22.2327 14.5573 22.5093 13.8887 23.9453 13.8887L25.7738 13.888V10.8561C25.4576 10.8158 24.3721 10.7234 23.1088 10.7234C20.4707 10.7234 18.6646 12.3028 18.6646 15.2027V17.7022H15.6812V21.0919H18.6646V29.7872H22.2327Z" fill="white"/>
</mask>
<g mask="url(#mask1_6_281)">
<rect x="7.34082" y="7.14893" width="26.2128" height="26.2128" fill="white"/>
</g>
</svg>
