<svg width="40" height="40" viewBox="0 0 40 40" fill="none" xmlns="http://www.w3.org/2000/svg">
<path fill-rule="evenodd" clip-rule="evenodd" d="M19.9468 39.5106C30.9631 39.5106 39.8936 30.6659 39.8936 19.7553C39.8936 8.84476 30.9631 0 19.9468 0C8.93049 0 0 8.84476 0 19.7553C0 30.6659 8.93049 39.5106 19.9468 39.5106Z" fill="#F5F6FA" fill-opacity="0.01"/>
<mask id="mask0_6_270" style="mask-type:luminance" maskUnits="userSpaceOnUse" x="0" y="0" width="40" height="40">
<path fill-rule="evenodd" clip-rule="evenodd" d="M19.9468 39.5106C30.9631 39.5106 39.8936 30.6659 39.8936 19.7553C39.8936 8.84476 30.9631 0 19.9468 0C8.93049 0 0 8.84476 0 19.7553C0 30.6659 8.93049 39.5106 19.9468 39.5106Z" fill="white"/>
</mask>
<g mask="url(#mask0_6_270)">
</g>
<path d="M20.4474 18.5873V21.9234H25.1664C24.4775 23.8651 22.6225 25.2596 20.4474 25.2596C17.6883 25.2596 15.4431 23.0144 15.4431 20.2553C15.4431 17.4963 17.6883 15.2511 20.4474 15.2511C21.6434 15.2511 22.7944 15.6798 23.6884 16.4588L25.8803 13.9433C24.379 12.6355 22.4507 11.9149 20.4474 11.9149C15.8484 11.9149 12.1069 15.6564 12.1069 20.2553C12.1069 24.8543 15.8484 28.5958 20.4474 28.5958C25.0463 28.5958 28.7878 24.8543 28.7878 20.2553V18.5873H20.4474Z" fill="black"/>
<mask id="mask1_6_270" style="mask-type:luminance" maskUnits="userSpaceOnUse" x="12" y="11" width="17" height="18">
<path d="M20.4474 18.5873V21.9234H25.1664C24.4775 23.8651 22.6225 25.2596 20.4474 25.2596C17.6883 25.2596 15.4431 23.0144 15.4431 20.2553C15.4431 17.4963 17.6883 15.2511 20.4474 15.2511C21.6434 15.2511 22.7944 15.6798 23.6884 16.4588L25.8803 13.9433C24.379 12.6355 22.4507 11.9149 20.4474 11.9149C15.8484 11.9149 12.1069 15.6564 12.1069 20.2553C12.1069 24.8543 15.8484 28.5958 20.4474 28.5958C25.0463 28.5958 28.7878 24.8543 28.7878 20.2553V18.5873H20.4474Z" fill="white"/>
</mask>
<g mask="url(#mask1_6_270)">
<rect x="7.34082" y="7.14893" width="26.2128" height="26.2128" fill="white"/>
</g>
</svg>
