<svg width="40" height="40" viewBox="0 0 40 40" fill="none" xmlns="http://www.w3.org/2000/svg">
<path fill-rule="evenodd" clip-rule="evenodd" d="M19.9468 39.5106C30.9631 39.5106 39.8936 30.6659 39.8936 19.7553C39.8936 8.84476 30.9631 0 19.9468 0C8.93049 0 0 8.84476 0 19.7553C0 30.6659 8.93049 39.5106 19.9468 39.5106Z" fill="#F5F6FA" fill-opacity="0.01"/>
<mask id="mask0_6_259" style="mask-type:luminance" maskUnits="userSpaceOnUse" x="0" y="0" width="40" height="40">
<path fill-rule="evenodd" clip-rule="evenodd" d="M19.9468 39.5106C30.9631 39.5106 39.8936 30.6659 39.8936 19.7553C39.8936 8.84476 30.9631 0 19.9468 0C8.93049 0 0 8.84476 0 19.7553C0 30.6659 8.93049 39.5106 19.9468 39.5106Z" fill="white"/>
</mask>
<g mask="url(#mask0_6_259)">
</g>
<path d="M31.1698 13.8616C30.4243 14.1919 29.6244 14.416 28.7839 14.516C29.6421 14.0021 30.299 13.187 30.6104 12.2187C29.8054 12.6946 28.9168 13.0401 27.9701 13.2275C27.2119 12.4187 26.1335 11.9149 24.9374 11.9149C22.6426 11.9149 20.782 13.7755 20.782 16.069C20.782 16.3943 20.8187 16.712 20.8896 17.0158C17.4368 16.8424 14.375 15.1881 12.3258 12.6743C11.9676 13.287 11.7638 14.0008 11.7638 14.7628C11.7638 16.2044 12.4979 17.4765 13.6118 18.2207C12.9308 18.1979 12.2904 18.0106 11.7297 17.6992V17.7511C11.7297 19.7636 13.1625 21.4432 15.0623 21.8255C14.7142 21.9192 14.3472 21.9711 13.9674 21.9711C13.6991 21.9711 13.4396 21.9445 13.1852 21.8938C13.7143 23.5456 15.2484 24.7468 17.0659 24.7797C15.6445 25.8935 13.8523 26.5555 11.9056 26.5555C11.5702 26.5555 11.2398 26.5353 10.9146 26.4985C12.7536 27.6795 14.937 28.368 17.2837 28.368C24.9273 28.368 29.1055 22.0369 29.1055 16.5462L29.0915 16.0083C29.9079 15.426 30.6142 14.6944 31.1698 13.8616Z" fill="#010002"/>
<mask id="mask1_6_259" style="mask-type:luminance" maskUnits="userSpaceOnUse" x="10" y="11" width="22" height="18">
<path d="M31.1698 13.8616C30.4243 14.1919 29.6244 14.416 28.7839 14.516C29.6421 14.0021 30.299 13.187 30.6104 12.2187C29.8054 12.6946 28.9168 13.0401 27.9701 13.2275C27.2119 12.4187 26.1335 11.9149 24.9374 11.9149C22.6426 11.9149 20.782 13.7755 20.782 16.069C20.782 16.3943 20.8187 16.712 20.8896 17.0158C17.4368 16.8424 14.375 15.1881 12.3258 12.6743C11.9676 13.287 11.7638 14.0008 11.7638 14.7628C11.7638 16.2044 12.4979 17.4765 13.6118 18.2207C12.9308 18.1979 12.2904 18.0106 11.7297 17.6992V17.7511C11.7297 19.7636 13.1625 21.4432 15.0623 21.8255C14.7142 21.9192 14.3472 21.9711 13.9674 21.9711C13.6991 21.9711 13.4396 21.9445 13.1852 21.8938C13.7143 23.5456 15.2484 24.7468 17.0659 24.7797C15.6445 25.8935 13.8523 26.5555 11.9056 26.5555C11.5702 26.5555 11.2398 26.5353 10.9146 26.4985C12.7536 27.6795 14.937 28.368 17.2837 28.368C24.9273 28.368 29.1055 22.0369 29.1055 16.5462L29.0915 16.0083C29.9079 15.426 30.6142 14.6944 31.1698 13.8616Z" fill="white"/>
</mask>
<g mask="url(#mask1_6_259)">
<rect x="7.34033" y="7.14893" width="26.2128" height="26.2128" fill="white"/>
</g>
</svg>
